<?xml version="1.0" encoding="utf-8"?>
<!-- Generator: Adobe Illustrator 16.0.0, SVG Export Plug-In . SVG Version: 6.00 Build 0)  -->
<!DOCTYPE svg PUBLIC "-//W3C//DTD SVG 1.1//EN" "http://www.w3.org/Graphics/SVG/1.1/DTD/svg11.dtd">
<svg version="1.1" id="Layer_1" xmlns="http://www.w3.org/2000/svg" xmlns:xlink="http://www.w3.org/1999/xlink" x="0px" y="0px"
	 width="363.5px" height="363.5px" viewBox="0 0 363.5 363.5" enable-background="new 0 0 363.5 363.5" xml:space="preserve">
<path fill="#0694B4" d="M340.781,0H22.719C10.178,0,0,10.178,0,22.719v318.062C0,353.316,10.178,363.5,22.719,363.5h170.391V227.188
	h-45.438v-56.796h45.438v-34.078c0-46.791,26.414-79.516,68.156-79.516c19.99,0,34.078,0,45.438,0v56.797h-22.72
	c-22.696,0-34.077,11.359-34.077,34.078v22.719h56.797l-11.358,56.796h-45.438V363.5h90.874c12.535,0,22.719-10.184,22.719-22.719
	V22.719C363.5,10.178,353.316,0,340.781,0z"/>
</svg>
