<?xml version="1.0" encoding="utf-8"?>
<!-- Generator: Adobe Illustrator 16.0.0, SVG Export Plug-In . SVG Version: 6.00 Build 0)  -->
<!DOCTYPE svg PUBLIC "-//W3C//DTD SVG 1.1//EN" "http://www.w3.org/Graphics/SVG/1.1/DTD/svg11.dtd">
<svg version="1.1" id="Layer_1" xmlns="http://www.w3.org/2000/svg" xmlns:xlink="http://www.w3.org/1999/xlink" x="0px" y="0px"
	 width="299.582px" height="299.575px" viewBox="0 0 299.582 299.575" enable-background="new 0 0 299.582 299.575"
	 xml:space="preserve">
<path fill="#0694B4" d="M241.684,0H57.897C25.971,0,0,25.964,0,57.891v61.153v122.64c0,31.926,25.971,57.891,57.896,57.891H241.69
	c31.926,0,57.892-25.965,57.892-57.891V119.039V57.884C299.574,25.958,273.61,0,241.684,0z M214.13,34.668h50.677v50.676H214.13
	V34.668z M107.03,119.039c9.597-13.278,25.163-21.981,42.761-21.981s33.164,8.704,42.748,21.981
	c6.244,8.663,9.985,19.261,9.985,30.745c0,29.076-23.676,52.722-52.739,52.722c-29.075,0-52.728-23.646-52.728-52.722
	C97.063,138.3,100.792,127.702,107.03,119.039z M270.388,241.677c0,15.839-12.877,28.704-28.704,28.704H57.897
	c-15.833,0-28.709-12.865-28.709-28.704V119.039h44.721c-3.866,9.5-6.031,19.875-6.031,30.745c0,45.156,36.741,81.921,81.914,81.921
	s81.915-36.765,81.915-81.921c0-10.87-2.185-21.244-6.043-30.745h44.726L270.388,241.677L270.388,241.677z"/>
</svg>
