<?xml version="1.0" encoding="utf-8"?>
<!-- Generator: Adobe Illustrator 16.0.0, SVG Export Plug-In . SVG Version: 6.00 Build 0)  -->
<!DOCTYPE svg PUBLIC "-//W3C//DTD SVG 1.1//EN" "http://www.w3.org/Graphics/SVG/1.1/DTD/svg11.dtd">
<svg version="1.1" id="Layer_1" xmlns="http://www.w3.org/2000/svg" xmlns:xlink="http://www.w3.org/1999/xlink" x="0px" y="0px"
	 width="266.578px" height="248.404px" viewBox="0 0 266.578 248.404" enable-background="new 0 0 266.578 248.404"
	 xml:space="preserve">
<g>
	<path fill="#0694B4" d="M143.346,112.044v-0.385c-0.084,0.126-0.179,0.258-0.269,0.385H143.346z"/>
	<path fill="#0694B4" d="M246.873,0H19.694C8.818,0,0,7.974,0,17.797v212.815c0,9.822,8.817,17.792,19.694,17.792h227.179
		c10.889,0,19.705-7.975,19.705-17.792V17.797C266.578,7.969,257.756,0,246.873,0z M80.804,207.948H40.536V95.783h40.268V207.948z
		 M60.672,80.459h-0.269c-13.505,0-22.244-8.618-22.244-19.377c0-11.003,9.007-19.377,22.775-19.377
		c13.779,0,22.249,8.374,22.518,19.377C83.453,71.841,74.71,80.459,60.672,80.459z M225.994,207.948h-40.262v-60.023
		c0-15.07-5.826-25.361-20.395-25.361c-11.125,0-17.746,6.94-20.664,13.643c-1.063,2.39-1.322,5.734-1.322,9.091v62.646h-40.262
		c0,0,0.527-101.654,0-112.17h40.262v15.88c5.353-7.643,14.918-18.523,36.291-18.523c26.49,0,46.356,16.036,46.356,50.489v64.33
		L225.994,207.948L225.994,207.948z"/>
</g>
</svg>
