<?xml version="1.0" encoding="utf-8"?>
<!-- Generator: Adobe Illustrator 16.0.0, SVG Export Plug-In . SVG Version: 6.00 Build 0)  -->
<!DOCTYPE svg PUBLIC "-//W3C//DTD SVG 1.1//EN" "http://www.w3.org/Graphics/SVG/1.1/DTD/svg11.dtd">
<svg version="1.1" id="Layer_1" xmlns="http://www.w3.org/2000/svg" xmlns:xlink="http://www.w3.org/1999/xlink" x="0px" y="0px"
	 width="272.875px" height="222.355px" viewBox="0 0 272.875 222.355" enable-background="new 0 0 272.875 222.355"
	 xml:space="preserve">
<path fill="#0694B4" d="M241.792,35.015c10.811-1.402,21.076-4.273,31.086-8.629c-0.069,0.796-0.543,1.156-0.84,1.589
	c-4.267,6.218-9.109,11.958-14.541,17.185c-3.483,3.354-7.139,6.53-11.07,9.361c-0.889,0.642-1.252,1.284-1.215,2.462
	c0.428,13.367-0.808,26.586-3.713,39.647c-3.072,13.814-7.832,27.028-14.248,39.633c-5.937,11.664-13.142,22.489-21.666,32.442
	c-9.188,10.728-19.631,20.031-31.369,27.872c-10.153,6.782-20.998,12.214-32.494,16.354c-9.705,3.496-19.669,5.943-29.854,7.491
	c-5.134,0.78-10.302,1.269-15.491,1.61c-3.434,0.226-6.877,0.322-10.298,0.322c-5.423,0-10.855-0.221-16.27-0.79
	c-7.928-0.833-15.761-2.143-23.485-4.103c-16.298-4.137-31.527-10.761-45.758-19.702c-0.196-0.123-0.372-0.281-0.566-0.56
	c30.32,2.91,57.667-4.599,81.967-22.854c-0.02-0.112-0.04-0.226-0.06-0.339c-2.131-0.231-4.271-0.404-6.392-0.703
	c-10.232-1.442-19.333-5.519-27.315-12.035c-7.951-6.49-13.691-14.599-17.274-24.226c-0.14-0.374-0.251-0.76-0.392-1.134
	c-0.297-0.792-0.145-1.108,0.79-0.934c3.946,0.741,7.936,0.953,11.941,0.794c3.603-0.145,7.16-0.663,10.665-1.518
	c0.214-0.052,0.482-0.044,0.607-0.311c-0.201-0.327-0.562-0.251-0.854-0.332C31.063,127.32,16.976,112.8,11.633,89.907
	c-0.8-3.428-1.08-6.947-1.09-10.475c-0.003-1.193,0.175-1.272,1.241-0.71c6.588,3.479,13.586,5.58,21.017,6.203
	c0.775,0.065,1.548,0.374,2.507,0.055c-1.52-1.208-2.973-2.298-4.355-3.472C24.228,75.796,19.081,68.906,15.568,60.8
	c-3.433-7.919-4.898-16.213-4.518-24.802c0.385-8.677,2.644-16.873,6.889-24.485c0.702-1.258,0.782-1.267,1.672-0.176
	c3.973,4.873,8.307,9.412,12.843,13.755c9.023,8.638,18.953,16.083,29.737,22.38c13.566,7.921,28.01,13.667,43.288,17.3
	c8.217,1.954,16.535,3.303,24.974,3.843c0.677,0.043,1.35,0.169,2.027,0.196c1.631,0.065,1.687,0.006,1.362-1.551
	c-0.809-3.891-1.202-7.834-1.108-11.792c0.326-13.693,4.813-25.837,13.871-36.185c8.778-10.029,19.752-16.291,32.905-18.455
	c15.355-2.527,29.457,0.761,42.213,9.727c2.527,1.776,4.859,3.785,7.029,5.968c0.858,0.864,1.634,1.125,2.836,0.864
	c11.466-2.489,22.279-6.656,32.47-12.457c0.174-0.099,0.338-0.215,0.515-0.309c0.206-0.111,0.438-0.285,0.656-0.101
	c0.225,0.188,0.079,0.453,0.007,0.67c-0.642,1.938-1.39,3.834-2.266,5.679c-4.632,9.74-11.496,17.528-20.501,23.448
	C242.249,34.461,241.944,34.524,241.792,35.015z"/>
</svg>
